<?xml version="1.0" encoding="utf-8"?>
<!-- Generator: Adobe Illustrator 26.0.0, SVG Export Plug-In . SVG Version: 6.00 Build 0)  -->
<svg version="1.1" id="Camada_1" xmlns="http://www.w3.org/2000/svg" xmlns:xlink="http://www.w3.org/1999/xlink" x="0px" y="0px"
	 viewBox="0 0 757.8 943.5" style="enable-background:new 0 0 757.8 943.5;" xml:space="preserve">
<style type="text/css">
	.st0{fill:#FFFFFF;}
</style>
<path class="st0" d="M537,238.1c0,8.8-0.6,17.6-1.7,26.3c0.5-3.5,1-7.1,1.4-10.6c-2.4,17.4-7,34.3-13.7,50.5c1.3-3.2,2.7-6.4,4-9.6
	c-6.7,15.8-15.3,30.6-25.8,44.2l6.3-8.1c-10.4,13.4-22.5,25.5-35.9,35.9l8.1-6.3c-13.6,10.4-28.4,19.1-44.2,25.8
	c3.2-1.3,6.4-2.7,9.6-4c-16.2,6.7-33.1,11.3-50.5,13.7c3.5-0.5,7.1-1,10.6-1.4c-17.5,2.3-35.1,2.3-52.6,0c3.5,0.5,7.1,1,10.6,1.4
	c-17.4-2.4-34.3-7-50.5-13.7c3.2,1.3,6.4,2.7,9.6,4c-15.8-6.7-30.6-15.3-44.2-25.8l8.1,6.3c-13.4-10.4-25.5-22.5-35.9-35.9l6.3,8.1
	c-10.4-13.6-19.1-28.4-25.8-44.2c1.3,3.2,2.7,6.4,4,9.6c-6.7-16.2-11.3-33.1-13.7-50.5c0.5,3.5,1,7.1,1.4,10.6
	c-2.3-17.5-2.3-35.1,0-52.6c-0.5,3.5-1,7.1-1.4,10.6c2.4-17.4,7-34.3,13.7-50.5c-1.3,3.2-2.7,6.4-4,9.6
	c6.7-15.8,15.3-30.6,25.8-44.2l-6.3,8.1c10.4-13.4,22.5-25.5,35.9-35.9l-8.1,6.3c13.6-10.4,28.4-19.1,44.2-25.8
	c-3.2,1.3-6.4,2.7-9.6,4c16.2-6.7,33.1-11.3,50.5-13.7c-3.5,0.5-7.1,1-10.6,1.4c17.5-2.3,35.1-2.3,52.6,0c-3.5-0.5-7.1-1-10.6-1.4
	c17.4,2.4,34.3,7,50.5,13.7c-3.2-1.3-6.4-2.7-9.6-4c15.8,6.7,30.6,15.3,44.2,25.8l-8.1-6.3c13.4,10.4,25.5,22.5,35.9,35.9l-6.3-8.1
	c10.4,13.6,19.1,28.4,25.8,44.2c-1.3-3.2-2.7-6.4-4-9.6c6.7,16.2,11.3,33.1,13.7,50.5c-0.5-3.5-1-7.1-1.4-10.6
	C536.4,220.5,536.9,229.3,537,238.1c0.1,20.9,18.3,41,40,40c21.6-1,40.1-17.6,40-40c-0.2-47.9-14.6-96.9-42.8-135.9
	c-7.6-10.5-15.7-20.8-24.7-30.1c-9.1-9.4-19.1-17.5-29.5-25.4c-18.9-14.4-40-25-62.4-33.2c-90.3-33.1-199.2-3.6-260.3,70.8
	c-8.4,10.2-16.4,20.8-23.2,32.2c-6.8,11.3-12.1,23.3-17,35.5c-9.2,22.6-13.9,46.6-15.8,70.9c-3.7,47.6,8.7,97.3,33.5,138.1
	c23.9,39.4,60,73.2,102.2,92.3c12.4,5.6,25.1,10.8,38.3,14.5c13.1,3.6,26.4,5.6,39.9,7.2c24.6,2.9,49.7,0.9,74-4
	c92.3-18.8,169.6-98.3,183.9-191.6c2.1-13.6,3.7-27.2,3.7-41c0.1-20.9-18.5-41-40-40C555.2,199.1,537,215.7,537,238.1z M669.7,863.4
	H156.6c-22.7,0-45.4,0.2-68.1,0c-2.5,0-5-0.2-7.4-0.5c3.5,0.5,7.1,1,10.6,1.4c-4-0.6-7.8-1.7-11.5-3.2c3.2,1.3,6.4,2.7,9.6,4
	c-4-1.7-7.7-3.9-11.2-6.6l8.1,6.3c-3-2.5-5.8-5.2-8.2-8.2l6.3,8.1c-2.7-3.5-4.8-7.2-6.6-11.2c1.3,3.2,2.7,6.4,4,9.6
	c-1.5-3.7-2.5-7.6-3.2-11.5c0.5,3.5,1,7.1,1.4,10.6c-1.6-12.1-0.5-24.9-0.5-37.1v-42.8c0-10.7,0.6-21.3,2-31.9
	c-0.5,3.5-1,7.1-1.4,10.6c2.8-20.5,8.2-40.6,16.3-59.7c-1.3,3.2-2.7,6.4-4,9.6c7.8-18.2,17.8-35.3,29.9-51l-6.3,8.1
	c12.1-15.5,26-29.5,41.6-41.6l-8.1,6.3c15.7-12.1,32.8-22.1,51-29.9c-3.2,1.3-6.4,2.7-9.6,4c19.1-8,39.1-13.5,59.7-16.3
	c-3.5,0.5-7.1,1-10.6,1.4c14.8-1.9,29.5-2,44.4-2h183c16.5,0,32.9-0.1,49.4,2c-3.5-0.5-7.1-1-10.6-1.4c20.5,2.8,40.6,8.2,59.7,16.3
	c-3.2-1.3-6.4-2.7-9.6-4c18.2,7.8,35.3,17.8,51,29.9l-8.1-6.3c15.5,12.1,29.5,26,41.6,41.6l-6.3-8.1c12.1,15.7,22.1,32.8,29.9,51
	c-1.3-3.2-2.7-6.4-4-9.6c8,19.1,13.5,39.1,16.3,59.7c-0.5-3.5-1-7.1-1.4-10.6c1.9,15.1,2,30.1,2,45.3v49.5c0,5.7,0.2,11.4-0.5,17
	c0.5-3.5,1-7.1,1.4-10.6c-0.6,4-1.7,7.8-3.2,11.5c1.3-3.2,2.7-6.4,4-9.6c-1.7,4-3.9,7.7-6.6,11.2l6.3-8.1c-2.5,3-5.2,5.8-8.2,8.2
	l8.1-6.3c-3.5,2.7-7.2,4.8-11.2,6.6c3.2-1.3,6.4-2.7,9.6-4c-3.7,1.5-7.6,2.5-11.5,3.2c3.5-0.5,7.1-1,10.6-1.4
	C674.3,863.2,672,863.3,669.7,863.4c-10.3,0.1-20.9,4.4-28.3,11.7c-6.9,6.9-12.2,18.3-11.7,28.3c1,21.4,17.6,40.3,40,40
	c38.9-0.6,73.1-26,84.5-63.3c4.5-14.8,3.5-30.7,3.5-45.9c0-34.8,1.1-69.3-4.9-103.8c-8.8-50.5-34.2-98-69-135.3
	s-81.6-64.7-131.1-76.9c-28.4-7-57-8.1-86-8.1H289.3c-29.7,0-59.2,1.4-88.1,9.1c-49.1,13-95.3,40.7-129.4,78.3
	C37.4,635.4,12.5,683,4.4,733.8c-5.4,34.1-4.3,68.3-4.3,102.7c0,15.8-0.9,32.3,4.8,47.4c7.4,19.4,19.2,34.7,36.5,46.2
	C54.9,939,72,943.3,88,943.5c7.8,0.1,15.6,0,23.4,0h558.4c20.9,0,41-18.4,40-40C708.8,881.7,692.2,863.4,669.7,863.4L669.7,863.4z"
	/>
</svg>
