<?xml version="1.0" encoding="utf-8"?>
<!-- Generator: Adobe Illustrator 26.0.0, SVG Export Plug-In . SVG Version: 6.00 Build 0)  -->
<svg version="1.1" id="Camada_1" xmlns="http://www.w3.org/2000/svg" xmlns:xlink="http://www.w3.org/1999/xlink" x="0px" y="0px"
	 viewBox="0 0 96 96" style="enable-background:new 0 0 96 96;" xml:space="preserve">
<style type="text/css">
	.st0{fill:#725AC1;}
</style>
<g>
	<path class="st0" d="M90.8,85.2L68.1,62.5C73.2,56.1,76,48.2,76,40C76,20.1,59.9,4,40,4C20.1,4,4,20.1,4,40s16.1,36,36,36
		c8.5,0,16.3-2.9,22.5-7.9l22.7,22.7c0.7,0.8,1.8,1.2,2.8,1.2c2.2,0,4-1.8,4-4C92,86.9,91.6,85.9,90.8,85.2z M40,68
		c-15.5,0-28-12.5-28-28s12.5-28,28-28c15.5,0,28,12.5,28,28S55.5,68,40,68z"/>
</g>
</svg>
