<?xml version="1.0" encoding="utf-8"?>
<!-- Generator: Adobe Illustrator 26.0.0, SVG Export Plug-In . SVG Version: 6.00 Build 0)  -->
<svg version="1.1" id="Camada_1" xmlns="http://www.w3.org/2000/svg" xmlns:xlink="http://www.w3.org/1999/xlink" x="0px" y="0px"
	 viewBox="0 0 32 32" style="enable-background:new 0 0 32 32;" xml:space="preserve">
<style type="text/css">
	.st0{fill:#FFFFFF;}
</style>
<path class="st0" d="M5.8,27c1.2,1.2,3.1,1.2,4.3,0l0.6-0.6c0.5,0.3,1.1,0.5,1.7,0.7v0.9c0,1.7,1.4,3.1,3.1,3.1h1
	c1.7,0,3.1-1.4,3.1-3.1v-0.9c0.6-0.2,1.1-0.4,1.7-0.7l0.6,0.6c1.2,1.2,3.1,1.2,4.3,0l0.7-0.7c1.2-1.2,1.2-3.1,0-4.4l-0.6-0.6
	c0.3-0.5,0.5-1.1,0.7-1.7h0.9c1.7,0,3.1-1.4,3.1-3.1v-1c0-1.7-1.4-3.1-3.1-3.1h-0.9c-0.2-0.6-0.4-1.1-0.7-1.7l0.6-0.6
	c1.2-1.2,1.2-3.1,0-4.3L26.2,5c-1.2-1.2-3.1-1.2-4.3,0l-0.6,0.6c-0.5-0.3-1.1-0.5-1.7-0.7V4.1c0-1.7-1.4-3.1-3.1-3.1h-1
	c-1.7,0-3.1,1.4-3.1,3.1v0.9c-0.6,0.2-1.1,0.4-1.7,0.7L10.1,5C8.9,3.8,7,3.8,5.8,5L5,5.8C3.8,7,3.8,8.9,5,10.1l0.6,0.6
	c-0.3,0.5-0.5,1.1-0.7,1.7H4.1c-1.7,0-3.1,1.4-3.1,3.1v1c0,1.7,1.4,3.1,3.1,3.1h0.9c0.2,0.6,0.4,1.1,0.7,1.7L5,21.9
	c-1.2,1.2-1.2,3.1,0,4.4C5,26.2,5.8,27,5.8,27z M15.5,3h1c0.6,0,1.1,0.5,1.1,1.1v1.5c0,0.5,0.3,0.9,0.8,1c0.9,0.2,1.8,0.6,2.7,1.1
	c0.4,0.2,0.9,0.2,1.2-0.1l1.1-1.1c0.4-0.4,1.1-0.4,1.5,0c0,0,0,0,0,0l0.7,0.7c0.4,0.4,0.4,1.1,0,1.5l-1.1,1.1
	c-0.3,0.3-0.4,0.8-0.2,1.2c0.5,0.8,0.9,1.7,1.1,2.7c0.1,0.4,0.5,0.8,1,0.8h1.5c0.6,0,1.1,0.5,1.1,1.1v1c0,0.6-0.5,1.1-1.1,1.1h-1.5
	c-0.5,0-0.9,0.3-1,0.8c-0.2,0.9-0.6,1.8-1.1,2.7c-0.2,0.4-0.2,0.9,0.2,1.2l1.1,1.1c0.4,0.4,0.4,1.1,0,1.5c0,0,0,0,0,0l-0.7,0.7
	c-0.4,0.4-1.1,0.4-1.5,0c0,0,0,0,0,0l-1.1-1.1c-0.3-0.3-0.8-0.4-1.2-0.1c-0.8,0.5-1.7,0.9-2.7,1.1c-0.4,0.1-0.8,0.5-0.8,1v1.5
	c0,0.6-0.4,1.1-1,1.1c0,0,0,0,0,0h-1c-0.6,0-1.1-0.4-1.1-1c0,0,0,0,0,0v-1.5c0-0.5-0.3-0.9-0.8-1c-0.9-0.2-1.8-0.6-2.7-1.1
	c-0.4-0.2-0.9-0.2-1.2,0.1l-1.1,1.1c-0.4,0.4-1.1,0.4-1.5,0c0,0,0,0,0,0l-0.7-0.7c-0.4-0.4-0.4-1.1,0-1.5c0,0,0,0,0,0l1.1-1.1
	c0.3-0.3,0.4-0.8,0.1-1.2c-0.5-0.8-0.9-1.7-1.1-2.7c-0.1-0.4-0.5-0.8-1-0.8H4.1c-0.6,0-1.1-0.5-1.1-1c0,0,0,0,0,0v-1
	c0-0.6,0.6-0.9,1.1-1.1c0.5-0.2,1.5,0,1.5,0c0.5,0,0.9-0.3,1-0.8c0.2-0.9,0.6-1.8,1.1-2.7c0.2-0.4,0.2-0.9-0.1-1.2L6.4,8.7
	C6,8.3,6,7.6,6.4,7.2c0,0,0,0,0,0l0.7-0.7C7.6,6,8.2,6,8.7,6.4c0,0,0,0,0,0l1.1,1.1c0.3,0.3,0.8,0.4,1.2,0.1
	c0.8-0.5,1.7-0.9,2.7-1.1c0.4-0.1,0.8-0.5,0.8-1V4.1C14.4,3.5,14.9,3,15.5,3z M16,10.3c-3.1,0-5.7,2.6-5.7,5.7s2.5,5.7,5.7,5.7
	c3.1,0,5.7-2.6,5.7-5.7S19.1,10.3,16,10.3z M16,12.3c2,0,3.7,1.6,3.7,3.6c0,0,0,0,0,0c0,2-1.6,3.7-3.6,3.7c0,0,0,0,0,0
	c-2,0-3.7-1.6-3.7-3.6c0,0,0,0,0,0C12.3,14,14,12.3,16,12.3C16,12.3,16,12.3,16,12.3z"/>
</svg>
