<?xml version="1.0" encoding="utf-8"?>
<!-- Generator: Adobe Illustrator 26.0.0, SVG Export Plug-In . SVG Version: 6.00 Build 0)  -->
<svg version="1.1" id="Camada_1" xmlns="http://www.w3.org/2000/svg" xmlns:xlink="http://www.w3.org/1999/xlink" x="0px" y="0px"
	 viewBox="0 0 30 30.1" style="enable-background:new 0 0 30 30.1;" xml:space="preserve">
<style type="text/css">
	.st0{fill:#FFFFFF;}
</style>
<path class="st0" d="M4.8,26c1.2,1.2,3.1,1.2,4.3,0l0.6-0.6c0.5,0.3,1.1,0.5,1.7,0.7V27c0,1.7,1.4,3.1,3.1,3.1h1
	c1.7,0,3.1-1.4,3.1-3.1v-0.9c0.6-0.2,1.1-0.4,1.7-0.7l0.6,0.6c1.2,1.2,3.1,1.2,4.3,0l0.7-0.7c1.2-1.2,1.2-3.1,0-4.4l-0.6-0.6
	c0.3-0.5,0.5-1.1,0.7-1.7h0.9c1.7,0,3.1-1.4,3.1-3.1v-1c0-1.7-1.4-3.1-3.1-3.1H26c-0.2-0.6-0.4-1.1-0.7-1.7l0.6-0.6
	c1.2-1.2,1.2-3.1,0-4.3L25.2,4c-1.2-1.2-3.1-1.2-4.3,0l-0.6,0.6c-0.5-0.3-1.1-0.5-1.7-0.7V3.1c0-1.7-1.4-3.1-3.1-3.1h-1
	c-1.7,0-3.1,1.4-3.1,3.1V4c-0.6,0.2-1.1,0.4-1.7,0.7L9.1,4C7.9,2.8,6,2.8,4.8,4L4,4.8C2.8,6,2.8,7.9,4,9.1l0.6,0.6
	c-0.3,0.5-0.5,1.1-0.7,1.7H3.1c-1.7,0-3.1,1.4-3.1,3.1v1c0,1.7,1.4,3.1,3.1,3.1H4c0.2,0.6,0.4,1.1,0.7,1.7L4,20.9
	c-1.2,1.2-1.2,3.1,0,4.4C4,25.2,4.8,26,4.8,26z M14.5,2h1c0.6,0,1.1,0.5,1.1,1.1v1.5c0,0.5,0.3,0.9,0.8,1c0.9,0.2,1.8,0.6,2.7,1.1
	c0.4,0.2,0.9,0.2,1.2-0.1l1.1-1.1c0.4-0.4,1.1-0.4,1.5,0l0,0l0.7,0.7c0.4,0.4,0.4,1.1,0,1.5l-1.1,1.1c-0.3,0.3-0.4,0.8-0.2,1.2
	c0.5,0.8,0.9,1.7,1.1,2.7c0.1,0.4,0.5,0.8,1,0.8h1.5c0.6,0,1.1,0.5,1.1,1.1v1c0,0.6-0.5,1.1-1.1,1.1h-1.5c-0.5,0-0.9,0.3-1,0.8
	c-0.2,0.9-0.6,1.8-1.1,2.7c-0.2,0.4-0.2,0.9,0.2,1.2l1.1,1.1c0.4,0.4,0.4,1.1,0,1.5l0,0l-0.7,0.7c-0.4,0.4-1.1,0.4-1.5,0l0,0
	l-1.1-1.1c-0.3-0.3-0.8-0.4-1.2-0.1c-0.8,0.5-1.7,0.9-2.7,1.1c-0.4,0.1-0.8,0.5-0.8,1v1.5c0,0.6-0.4,1.1-1,1.1l0,0h-1
	c-0.6,0-1.1-0.4-1.1-1l0,0v-1.5c0-0.5-0.3-0.9-0.8-1c-0.9-0.2-1.8-0.6-2.7-1.1c-0.4-0.2-0.9-0.2-1.2,0.1l-1.1,1.1
	c-0.4,0.4-1.1,0.4-1.5,0l0,0l-0.7-0.7c-0.4-0.4-0.4-1.1,0-1.5l0,0l1.1-1.1c0.3-0.3,0.4-0.8,0.1-1.2c-0.5-0.8-0.9-1.7-1.1-2.7
	c-0.1-0.4-0.5-0.8-1-0.8H3.1c-0.6,0-1.1-0.5-1.1-1l0,0v-1c0-0.6,0.6-0.9,1.1-1.1c0.5-0.2,1.5,0,1.5,0c0.5,0,0.9-0.3,1-0.8
	c0.2-0.9,0.6-1.8,1.1-2.7C6.9,9.8,6.9,9.3,6.6,9L5.4,7.7C5,7.3,5,6.6,5.4,6.2l0,0l0.7-0.7C6.6,5,7.2,5,7.7,5.4l0,0l1.1,1.1
	C9.1,6.8,9.6,6.9,10,6.6c0.8-0.5,1.7-0.9,2.7-1.1c0.4-0.1,0.8-0.5,0.8-1V3.1C13.4,2.5,13.9,2,14.5,2z M15,9.3
	c-3.1,0-5.7,2.6-5.7,5.7s2.5,5.7,5.7,5.7c3.1,0,5.7-2.6,5.7-5.7S18.1,9.3,15,9.3z M15,11.3c2,0,3.7,1.6,3.7,3.6l0,0
	c0,2-1.6,3.7-3.6,3.7l0,0c-2,0-3.7-1.6-3.7-3.6l0,0C11.3,13,13,11.3,15,11.3L15,11.3z"/>
</svg>
